<svg xmlns="http://www.w3.org/2000/svg" viewBox="0 0 306 229.5"><defs><style>.cls-1{isolation:isolate;}.cls-2{fill:none;stroke:#e30613;stroke-miterlimit:10;}.cls-3{fill:#e19909;}.cls-4{fill:#1c1c1c;}.cls-5{fill:#fdfdfd;}.cls-6{fill:#e06510;}.cls-7{fill:#5cba99;opacity:0.5;mix-blend-mode:screen;}.cls-8{fill:#00a2a0;}</style></defs><title>logo-be-journey</title><g class="cls-1"><g id="Calque_2" data-name="Calque 2"><g id="logo"><circle class="cls-2" cx="81" cy="95.5" r="9"/><circle class="cls-2" cx="81" cy="95.5" r="9"/><circle class="cls-2" cx="81" cy="95.5" r="9"/><path class="cls-3" d="M234,23.18v126.3q-7.25-2.41-14.68-4.39a247.75,247.75,0,0,0-63.81-8.3,250.69,250.69,0,0,0-38.51,3V4.26A152.5,152.5,0,0,1,145.39.19Q149.17,0,153,0A152.25,152.25,0,0,1,234,23.18Z"/><path class="cls-4" d="M117,186.3A58.53,58.53,0,0,1,5.68,191.45c-.33-1.17-.64-2.33-.94-3.51L4.26,186c0-.19-.09-.38-.13-.58-.73-3-1.37-5.15-1.9-8.27A130.77,130.77,0,0,1,0,153,153,153,0,0,1,93,12.21,94.53,94.53,0,0,0,117,186.3Z"/><path class="cls-5" d="M93,12.21A94.53,94.53,0,0,0,117,186.3V4.26A151.13,151.13,0,0,0,93,12.21ZM81,86.5a9,9,0,1,1-9,9A9,9,0,0,1,81,86.5Z"/><circle class="cls-4" cx="81" cy="95.5" r="9"/><path class="cls-6" d="M306,186H234V149.48q2,.68,4,1.38a286.61,286.61,0,0,1,33.56,14.27A238.11,238.11,0,0,1,306,186Z"/><path class="cls-6" d="M306,153v33h0c-20.65-15.27-47.14-28.22-72-36.52V23.18A152.89,152.89,0,0,1,306,153Z"/><path class="cls-3" d="M234,149.48V186l-117,.3V139.76c1.36-.21,2.73-.41,4.09-.6l2.87-.38.13,0,3-.35,3.34-.36c.88-.09,1.75-.18,2.63-.25,1.8-.17,3.61-.31,5.43-.43.81-.06,1.61-.11,2.42-.15l2.42-.13c1.62-.08,3.24-.15,4.87-.19l2.1-.05,2.26,0,3,0,3.48,0,2,0,1.61,0,1.92.06c.92,0,1.84.07,2.75.12l1,0c1.22.06,2.44.14,3.66.22s2.32.15,3.47.25l1.36.11q1.49.12,2.94.27l.46,0c1.27.13,2.54.26,3.81.41l.33,0c1.21.14,2.42.28,3.63.44l.3,0q5.91.78,11.72,1.84c1.31.23,2.62.48,3.92.74s2.31.46,3.46.71l1.13.24q3.38.73,6.7,1.56l1,.24c1,.26,2,.52,3.07.8l.21.05c.83.22,1.66.44,2.48.68.48.12,1,.26,1.45.4,1.45.41,2.9.84,4.34,1.28.79.23,1.59.48,2.38.73C231.37,148.62,232.69,149,234,149.48Z"/><path class="cls-7" d="M303.72,186H234l-117,.3A58.53,58.53,0,0,1,5.68,191.45c-.33-1.17-.64-2.33-.94-3.51A246.65,246.65,0,0,1,117,139.76c1.36-.21,2.73-.41,4.09-.6l2.87-.38.13,0,3-.35,3.34-.36c.88-.09,1.75-.18,2.63-.25,1.8-.17,3.61-.31,5.43-.43.81-.06,1.61-.11,2.42-.15l2.42-.13c1.62-.08,3.24-.15,4.87-.19l2.1-.05,2.26,0,3,0,3.48,0,2,0,1.61,0,1.92.06c.92,0,1.84.07,2.75.12l1,0c1.22.06,2.44.14,3.66.22s2.32.15,3.47.25l1.36.11q1.49.12,2.94.27l.46,0c1.27.13,2.54.26,3.81.41l.33,0c1.21.14,2.42.28,3.63.44l.3,0q5.91.78,11.72,1.84c1.31.23,2.62.48,3.92.74s2.31.46,3.46.71l1.13.24q3.38.73,6.7,1.56l1,.24c1,.26,2,.52,3.07.8l.21.05c.83.22,1.66.44,2.48.68.48.12,1,.26,1.45.4,1.45.41,2.9.84,4.34,1.28.79.23,1.59.48,2.38.73,1.32.42,2.64.84,3.95,1.28s2.68.91,4,1.38A247.19,247.19,0,0,1,303.72,186Z"/></g><g id="texte_-_copie" data-name="texte - copie"><path class="cls-8" d="M126.39,217.57c.07-1.14.14-2.84.14-4.33V193h3V203.5h.07a6.23,6.23,0,0,1,5.71-3.08c4.16,0,7.11,3.46,7.07,8.56,0,6-3.77,9-7.52,9a6,6,0,0,1-5.61-3.15h-.1l-.14,2.77Zm3.16-6.72a6.61,6.61,0,0,0,.13,1.11,4.72,4.72,0,0,0,4.58,3.57c3.19,0,5.09-2.6,5.09-6.45,0-3.36-1.73-6.24-5-6.24a4.86,4.86,0,0,0-4.64,3.75,5.9,5.9,0,0,0-.17,1.25Z"/><path class="cls-8" d="M147.94,209.74c.07,4.12,2.71,5.82,5.76,5.82a11.1,11.1,0,0,0,4.64-.86l.52,2.18a13.65,13.65,0,0,1-5.58,1c-5.16,0-8.25-3.4-8.25-8.46s3-9,7.87-9c5.47,0,6.93,4.82,6.93,7.9a12.73,12.73,0,0,1-.1,1.42Zm8.94-2.18c0-1.94-.79-5-4.22-5-3.09,0-4.44,2.84-4.68,5Z"/><path class="cls-8" d="M178.4,220.17v1.73H161.07v-1.73Z"/><path class="cls-8" d="M176.84,222.42a4.93,4.93,0,0,0,3.33-1.28c.83-1,1.14-2.29,1.14-6.3v-14h3.05V216c0,3.26-.52,5.37-2,6.9a7.74,7.74,0,0,1-5.2,1.9Zm7.86-26.33a1.79,1.79,0,0,1-1.9,1.87,1.82,1.82,0,0,1-1.87-1.87,1.86,1.86,0,0,1,1.94-1.91A1.8,1.8,0,0,1,184.7,196.09Z"/><path class="cls-8" d="M204.52,209.05c0,6.2-4.29,8.9-8.35,8.9-4.54,0-8-3.32-8-8.62,0-5.62,3.68-8.91,8.32-8.91C201.27,200.42,204.52,203.92,204.52,209.05Zm-13.3.17c0,3.67,2.11,6.45,5.09,6.45s5.1-2.74,5.1-6.52c0-2.84-1.43-6.44-5-6.44S191.22,206,191.22,209.22Z"/><path class="cls-8" d="M222.4,213c0,1.73,0,3.26.14,4.57h-2.7l-.18-2.73h-.07a6.29,6.29,0,0,1-5.54,3.11c-2.63,0-5.79-1.45-5.79-7.34V200.8h3.05v9.29c0,3.19,1,5.33,3.75,5.33a4.42,4.42,0,0,0,4-2.77,4.51,4.51,0,0,0,.27-1.56V200.8h3.05Z"/><path class="cls-8" d="M227.46,206c0-2,0-3.67-.14-5.23H230l.1,3.29h.14a5,5,0,0,1,4.64-3.67,3.3,3.3,0,0,1,.87.1v2.88a4.53,4.53,0,0,0-1-.1c-2.15,0-3.67,1.62-4.09,3.91a8.53,8.53,0,0,0-.14,1.42v8.94h-3Z"/><path class="cls-8" d="M238.93,205.34c0-1.73,0-3.15-.14-4.54h2.7l.17,2.77h.07a6.17,6.17,0,0,1,5.55-3.15c2.32,0,5.92,1.39,5.92,7.14v10h-3V207.9c0-2.7-1-5-3.88-5a4.44,4.44,0,0,0-4.29,4.54v10.08h-3Z"/><path class="cls-8" d="M259.85,209.74c.07,4.12,2.71,5.82,5.76,5.82a11.1,11.1,0,0,0,4.64-.86l.52,2.18a13.65,13.65,0,0,1-5.58,1c-5.16,0-8.25-3.4-8.25-8.46s3-9,7.87-9c5.47,0,6.93,4.82,6.93,7.9a12.73,12.73,0,0,1-.1,1.42Zm8.94-2.18c0-1.94-.79-5-4.22-5-3.09,0-4.44,2.84-4.68,5Z"/><path class="cls-8" d="M276.62,200.8l3.68,9.91c.38,1.11.79,2.43,1.07,3.43h.07c.31-1,.66-2.29,1.07-3.5l3.33-9.84h3.22l-4.57,12c-2.18,5.75-3.67,8.69-5.75,10.5a8.3,8.3,0,0,1-3.75,2l-.76-2.56a8.27,8.27,0,0,0,2.67-1.49,9.25,9.25,0,0,0,2.56-3.4,2.16,2.16,0,0,0,.25-.73,2.62,2.62,0,0,0-.21-.79l-6.2-15.46Z"/></g></g></g></svg>